<svg width="44" height="22" viewBox="0 0 44 22" fill="none" xmlns="http://www.w3.org/2000/svg">
<path d="M0.688 11.4695C0.688 9.45346 1.096 7.68949 1.912 6.17749C2.728 4.64149 3.844 3.4535 5.26 2.6135C6.7 1.7735 8.296 1.35351 10.048 1.35351C11.776 1.35351 13.276 1.7255 14.548 2.46951C15.82 3.21351 16.768 4.14949 17.392 5.27749V0.405994H20.704V21.4055H17.392V17.7335C16.744 18.8855 15.772 19.8455 14.476 20.6135C13.204 21.3575 11.716 21.7295 10.012 21.7295C8.26 21.7295 6.676 21.2975 5.26 20.4335C3.844 19.5695 2.728 18.3575 1.912 16.7975C1.096 15.2375 0.688 13.4615 0.688 11.4695ZM17.392 11.5055C17.392 10.0175 17.092 8.72147 16.492 7.61747C15.892 6.51347 15.076 5.67349 14.044 5.09749C13.036 4.49749 11.92 4.19749 10.696 4.19749C9.472 4.19749 8.356 4.48549 7.348 5.06149C6.34 5.63749 5.536 6.47748 4.936 7.58148C4.336 8.68548 4.036 9.98146 4.036 11.4695C4.036 12.9815 4.336 14.3015 4.936 15.4295C5.536 16.5335 6.34 17.3855 7.348 17.9855C8.356 18.5615 9.472 18.8495 10.696 18.8495C11.92 18.8495 13.036 18.5615 14.044 17.9855C15.076 17.3855 15.892 16.5335 16.492 15.4295C17.092 14.3015 17.392 12.9935 17.392 11.5055Z" fill="#D6D6D6"/>
<path d="M29.9399 16.6895C28.7879 15.3935 28.1967 13.5535 28.1967 11.1775V19.2419C28.5904 19.578 29.0155 19.8792 29.4719 20.1455C30.9359 20.9855 32.6039 21.4055 34.4759 21.4055C36.8519 21.4055 38.8319 20.8055 40.4159 19.6055C41.9999 18.3815 43.0559 16.7615 43.5839 14.7455H40.0559C39.6959 15.9935 39.0359 16.9535 38.0759 17.6255C37.1159 18.2975 35.9159 18.6335 34.4759 18.6335C32.6039 18.6335 31.0919 17.9855 29.9399 16.6895Z" fill="#D6D6D6"/>
<path fill-rule="evenodd" clip-rule="evenodd" d="M34.4759 1.02945V3.80145C35.9159 3.80145 37.1159 4.14945 38.0759 4.84545C39.0599 5.54145 39.7199 6.48945 40.0559 7.68945H43.5839C43.0799 5.60145 42.0359 3.96945 40.4519 2.79345C38.8919 1.61745 36.8999 1.02945 34.4759 1.02945Z" fill="#D6D6D6"/>
<path d="M0.688 11.4695C0.688 9.45346 1.096 7.68949 1.912 6.17749C2.728 4.64149 3.844 3.4535 5.26 2.6135C6.7 1.7735 8.296 1.35351 10.048 1.35351C11.776 1.35351 13.276 1.7255 14.548 2.46951C15.82 3.21351 16.768 4.14949 17.392 5.27749V0.405994H20.704V21.4055H17.392V17.7335C16.744 18.8855 15.772 19.8455 14.476 20.6135C13.204 21.3575 11.716 21.7295 10.012 21.7295C8.26 21.7295 6.676 21.2975 5.26 20.4335C3.844 19.5695 2.728 18.3575 1.912 16.7975C1.096 15.2375 0.688 13.4615 0.688 11.4695ZM17.392 11.5055C17.392 10.0175 17.092 8.72147 16.492 7.61747C15.892 6.51347 15.076 5.67349 14.044 5.09749C13.036 4.49749 11.92 4.19749 10.696 4.19749C9.472 4.19749 8.356 4.48549 7.348 5.06149C6.34 5.63749 5.536 6.47748 4.936 7.58148C4.336 8.68548 4.036 9.98146 4.036 11.4695C4.036 12.9815 4.336 14.3015 4.936 15.4295C5.536 16.5335 6.34 17.3855 7.348 17.9855C8.356 18.5615 9.472 18.8495 10.696 18.8495C11.92 18.8495 13.036 18.5615 14.044 17.9855C15.076 17.3855 15.892 16.5335 16.492 15.4295C17.092 14.3015 17.392 12.9935 17.392 11.5055Z" fill="#D6D6D6"/>
<path d="M29.9399 16.6895C28.7879 15.3935 28.1967 13.5535 28.1967 11.1775V19.2419C28.5904 19.578 29.0155 19.8792 29.4719 20.1455C30.9359 20.9855 32.6039 21.4055 34.4759 21.4055C36.8519 21.4055 38.8319 20.8055 40.4159 19.6055C41.9999 18.3815 43.0559 16.7615 43.5839 14.7455H40.0559C39.6959 15.9935 39.0359 16.9535 38.0759 17.6255C37.1159 18.2975 35.9159 18.6335 34.4759 18.6335C32.6039 18.6335 31.0919 17.9855 29.9399 16.6895Z" fill="#D6D6D6"/>
<path fill-rule="evenodd" clip-rule="evenodd" d="M34.4759 1.02945V3.80145C35.9159 3.80145 37.1159 4.14945 38.0759 4.84545C39.0599 5.54145 39.7199 6.48945 40.0559 7.68945H43.5839C43.0799 5.60145 42.0359 3.96945 40.4519 2.79345C38.8919 1.61745 36.8999 1.02945 34.4759 1.02945Z" fill="#D6D6D6"/>
<path d="M24.9207 21.4055H28.1967V19.2419V11.1775V5.74545V3.19305V1.85493V0.25293H24.9207V21.4055Z" fill="#1A1A1A"/>
<path d="M34.4759 1.02945C32.6039 1.02945 30.936 1.44945 29.472 2.28946C29.0155 2.5557 28.5905 2.85689 28.1967 3.19305V5.74545V11.1775C28.1967 8.82549 28.788 7.01745 29.94 5.74545C31.092 4.44945 32.6039 3.80145 34.4759 3.80145V1.02945Z" fill="#1A1A1A"/>
</svg>
